<?xml version="1.0" encoding="utf-8"?>
<!-- Generator: Adobe Illustrator 22.1.0, SVG Export Plug-In . SVG Version: 6.00 Build 0)  -->
<svg version="1.1" id="Layer_1" xmlns="http://www.w3.org/2000/svg" xmlns:xlink="http://www.w3.org/1999/xlink" x="0px" y="0px"
	 viewBox="0 0 312.2 130" style="enable-background:new 0 0 312.2 130;" xml:space="preserve">
<style type="text/css">
	.st0{fill:#56844E;}
	.st1{fill:#BECB31;}
	.st2{fill:#76BC21;}
</style>
<g>
	<path class="st0" d="M12.9,120.7c0,1.3,0.7,2,2,2h1.2v1.1l-2.6-0.1c-1.2,0-2,0-2.6,0c-0.6,0-1.4,0-2.6,0l-2.6,0.1v-1.1h1.3
		c1.3,0,2-0.7,2-2v-13.8H5.7c-2.3,0-2.7,0.4-3.2,3.5H1.3c0-0.6,0.1-1.1,0.1-1.4c0.2-1.5,0.2-1.7,0.3-2.8l0.1-1.4h0.9
		c0.4,0.5,0.5,0.6,1.3,0.6h13.7c0.9,0,1.1,0,1.4-0.6h0.8l0.1,1.4c0.1,1.1,0.1,1.2,0.3,2.8c0.1,0.3,0.1,0.8,0.2,1.4h-1.1
		c-0.5-3-0.9-3.5-2.9-3.5h-3.6V120.7z"/>
	<path class="st0" d="M39.6,115.2v5.5c0,1.3,0.6,2,1.9,2h0.6v1.1l-2.3-0.1c-1,0-1.8,0-2.3,0c-0.5,0-1.3,0-2.3,0l-2.3,0.1v-1.1h0.6
		c1.3,0,2-0.7,2-2v-12.2c0-1.3-0.7-1.9-2-1.9h-0.6v-1.1l2.3,0.1c1,0,1.8,0.1,2.3,0c0.5,0,1.3,0,2.3,0l2.3-0.1v1.1h-0.6
		c-1.2,0-1.9,0.7-1.9,1.9v5h9.2v-5c0-1.3-0.7-1.9-1.9-1.9h-0.5v-1.1l2.2,0.1c1,0,1.7,0.1,2.2,0.1c0.5,0,1.2,0,2.2-0.1l2.2-0.1v1.1
		h-0.5c-1.3,0-2,0.7-2,1.9v12.2c0,1.3,0.7,2,2,2h0.5v1.1l-2.2-0.1c-1,0-1.7,0-2.2,0c-0.5,0-1.2,0-2.2,0l-2.3,0.1v-1.1h0.5
		c1.3,0,1.9-0.7,1.9-2v-5.5H39.6z"/>
	<path class="st0" d="M84.1,106.1c0,0.8,0.1,1.9,0.2,3.6h-1.1c-0.1-2.1-0.6-2.6-2.1-2.6h-5.9v6.7h4.3c1.6,0,2.2-0.5,2.2-2.1h1.2
		c0,1.6-0.1,2.3-0.1,3c0,0.7,0,1.3,0.1,2.9h-1.2v-0.4c0-1.2-0.7-1.7-2.3-1.7h-4.2v5.7c0,0.9,0.2,1.1,1.1,1.1h4.6c2,0,2.6-0.6,3.2-3
		h1.1l-0.1,1.2l-0.1,1.2c-0.1,0.7-0.1,1.2-0.1,2.3l-6.3,0c-0.9,0-1.8,0-2.7,0c-1.4,0-2.3,0-2.7,0c-0.6,0-1.5,0-2.7,0l-2.7,0.1v-1.1
		h1.4c1.3,0,2-0.7,2-2v-11.9c0-1.6-0.7-2.2-2.5-2.2h-0.3v-1.1l2.6,0.1c1.2,0,2,0.1,2.7,0.1c0.4,0,1.3,0,2.5-0.1c0.9,0,1.7,0,2.6,0
		l5.4,0V106.1z"/>
	<path class="st0" d="M113.3,108.5c-0.6-1.4-1.2-1.9-2.4-1.9h-0.4v-1.1l2.5,0.1c1.1,0,2,0.1,2.5,0.1s1.4,0,2.5-0.1l2.5-0.1v1.1h-0.4
		c-1.6,0-2.5,0.4-2.5,1.2c0,0.3,0.1,0.6,0.3,1.1l4.4,10.2l4.2-9.8c0.3-0.8,0.5-1.2,0.5-1.5c0-0.7-0.8-1.1-2.2-1.1h-0.4v-1.1l1.8,0.1
		c0.8,0,1.4,0.1,1.8,0.1c0.4,0,1,0,1.8-0.1l1.8-0.1v1.1H131c-1.2,0-1.9,0.7-2.7,2.7l-6.3,15h-1.5L113.3,108.5z"/>
	<path class="st0" d="M153.2,123.9l-2.2-0.1c-1,0-1.7,0-2.2,0c-0.5,0-1.2,0-2.2,0l-2.2,0.1v-1.1h0.5c1.3,0,2-0.7,2-2v-12.2
		c0-1.3-0.7-1.9-2-1.9h-0.5v-1.1l2.2,0.1c1,0,1.7,0.1,2.2,0.1c0.5,0,1.2,0,2.2-0.1l2.2-0.1v1.1h-0.5c-1.2,0-1.9,0.7-1.9,1.9v12.2
		c0,1.3,0.7,2,1.9,2h0.5V123.9z"/>
	<path class="st0" d="M182.9,123.9l-5.9,0c-0.7,0-1.5,0-2.4,0c-1.1,0-1.9,0-2.3,0c-0.6,0-1.4,0-2.4,0l-2.4,0.1v-1.1h1
		c1.2,0,1.9-0.6,1.9-1.7v-12.7c0-1.1-0.6-1.7-1.9-1.7h-1v-1.1l2.4,0.1c1.1,0,1.9,0.1,2.4,0.1c0.6,0,1.4,0,2.4-0.1l2.4-0.1v1.1h-0.9
		c-1.2,0-1.9,0.7-1.9,1.9v12c0,0.6,0,0.9,0,1c0,0.2,0.1,0.3,0.2,0.4c0.2,0.3,0.4,0.3,1.5,0.3h2.8c1.9,0,2.5-0.3,3.7-1.9l1.2-1.6h1.1
		C183.9,121.2,183.7,121.6,182.9,123.9z"/>
	<path class="st0" d="M213.5,123.9l-5.9,0c-0.7,0-1.5,0-2.4,0c-1.1,0-1.9,0-2.3,0c-0.6,0-1.4,0-2.4,0l-2.4,0.1v-1.1h1
		c1.2,0,1.9-0.6,1.9-1.7v-12.7c0-1.1-0.6-1.7-1.9-1.7h-1v-1.1l2.4,0.1c1.1,0,1.9,0.1,2.4,0.1c0.6,0,1.4,0,2.4-0.1l2.4-0.1v1.1H207
		c-1.2,0-1.9,0.7-1.9,1.9v12c0,0.6,0,0.9,0,1c0,0.2,0.1,0.3,0.2,0.4c0.2,0.3,0.4,0.3,1.5,0.3h2.8c1.9,0,2.5-0.3,3.7-1.9l1.2-1.6h1.1
		C214.5,121.2,214.4,121.6,213.5,123.9z"/>
	<path class="st0" d="M245.2,120.3c0.7,1.8,1.2,2.3,2.9,2.4v1.1l-2.2-0.1c-0.9,0-1.8,0-2.5,0c-0.7,0-1.6,0-2.5,0l-2.2,0.1v-1.1h0.8
		c1.4,0,2-0.3,2-1.1c0-0.2-0.1-0.6-0.2-1l-1.4-3.6h-6.1l-1.4,3.8c-0.1,0.3-0.2,0.7-0.2,0.9c0,0.7,0.7,1,2.4,1h0.6v1.1l-1.9-0.1
		c-0.9,0-1.5,0-1.9,0c-0.4,0-1.1,0-1.9,0l-1.9,0.1v-1.1h0.4c1.4,0,2-0.5,2.7-2.4l5.3-14.5l-0.3-0.8l1,0c0.5,0,0.8,0,1.1,0
		c0.4,0,0.8,0,2-0.1L245.2,120.3z M234.3,115.4h4.9l-2.6-6.8L234.3,115.4z"/>
	<path class="st0" d="M279.3,108.7c0,0.8,0,1.2,0.1,2.4h-1.2l-0.2-0.6c-1-2.8-2.9-4.3-5.7-4.3c-4,0-6.8,3.4-6.8,8.2
		c0,4.9,2.9,8.5,6.7,8.5c1.1,0,2-0.2,3.1-0.8V118c0-1.4-0.8-1.9-3-1.9h-0.5V115l2.4,0.1c1.1,0,1.8,0,2.4,0c0.5,0,1.3,0,2.4,0
		l2.4-0.1v1.1H281c-1.1,0-1.6,0.7-1.6,2v4.3c-1.7,0.7-2.4,0.9-3.9,1.2c-1.4,0.3-3.1,0.5-4.4,0.5c-6,0-10.1-3.8-10.1-9.5
		c0-5.7,4.3-9.7,10.4-9.7c1.3,0,3.6,0.3,4.8,0.7l0.8,0.2c0.2,0.1,0.5,0.1,0.8,0.1c0.4,0,0.6-0.1,0.9-0.3h0.7
		C279.3,107.2,279.3,107.8,279.3,108.7z"/>
	<path class="st0" d="M310.1,106.1c0,0.8,0.1,1.9,0.2,3.6h-1.1c-0.1-2.1-0.6-2.6-2.1-2.6h-5.9v6.7h4.3c1.6,0,2.2-0.5,2.2-2.1h1.2
		c0,1.6-0.1,2.3-0.1,3c0,0.7,0,1.3,0.1,2.9h-1.2v-0.4c0-1.2-0.7-1.7-2.3-1.7h-4.2v5.7c0,0.9,0.2,1.1,1.1,1.1h4.6c2,0,2.6-0.6,3.2-3
		h1.1l-0.1,1.2l-0.1,1.2c-0.1,0.7-0.1,1.2-0.1,2.3l-6.3,0c-0.9,0-1.8,0-2.7,0c-1.4,0-2.3,0-2.7,0c-0.6,0-1.5,0-2.7,0l-2.7,0.1v-1.1
		h1.4c1.3,0,2-0.7,2-2v-11.9c0-1.6-0.7-2.2-2.5-2.2h-0.3v-1.1l2.6,0.1c1.2,0,2,0.1,2.7,0.1c0.4,0,1.3,0,2.5-0.1c0.9,0,1.7,0,2.6,0
		l5.4,0V106.1z"/>
</g>
<g>
	<g>
		<g>
			<path class="st0" d="M131.3,62.1c0,0,1.9,4.8-2.7,9c0,0-1.9,1.7-2.7,1.9c0,0-0.1,0-0.1,0c0,0,0.3-0.5,0.2-1c0,0-1.2,1.2-2.5,1.5
				c0,0-0.1,0-0.1-0.1c0,0,0.5-0.5,0.4-0.8c0,0-0.8,0.7-2.6,0.9c0,0-1.6,0.3-1.9,0.5c0,0,0.4-1,0.4-2.5c0,0,0.2-3,1.6-4.5
				c0,0-0.8,0-1.2,0.2c0,0-0.1,0-0.1-0.1c0,0,3.9-7.3,10.9-5.5C130.9,61.7,131.2,61.8,131.3,62.1z"/>
		</g>
	</g>
	<g>
		<g>
			<path class="st0" d="M154.9,51c1.3,1.7,1.5,4.1,2.3,6.5c1.1,3.5,4.2,6.4,7.1,3.5c2.9-3,0.1-6.3-3.4-7.2
				C158.4,53.1,156.5,52.2,154.9,51z"/>
		</g>
	</g>
	<g>
		<g>
			<path class="st0" d="M165.6,27.6c0,0-1.8-4.8,2.9-9c0,0,2-1.7,2.7-1.9c0,0,0.1,0,0.1,0.1c0,0-0.3,0.5-0.2,1c0,0,1.3-1.2,2.6-1.5
				c0,0,0.1,0,0.1,0.1c0,0-0.5,0.5-0.4,0.8c0,0,0.8-0.6,2.6-0.8c0,0,1.6-0.3,1.9-0.5c0,0-0.4,1-0.5,2.5c0,0-0.3,3-1.7,4.4
				c0,0,0.8,0,1.2-0.2c0,0,0.1,0,0.1,0.1c0,0-4.1,7.2-11,5.3C166,28.1,165.7,28,165.6,27.6z"/>
		</g>
	</g>
	<g>
		<g>
			<path class="st0" d="M142.5,38.8c-1.3-1.7-1.5-4.1-2.3-6.5c-1.1-3.5-4.3-6.3-7.2-3.5c-2.9,3-0.1,6.3,3.5,7.2
				C139,36.7,140.9,37.6,142.5,38.8z"/>
		</g>
	</g>
	<g>
		<g>
			<path class="st0" d="M138.9,68c0,0-1.9-2.4,0.1-5.6c0,0,0.8-1.3,1.2-1.5c0,0,0.1,0,0.1,0c0,0-0.1,0.3,0.1,0.6
				c0,0,0.5-0.9,1.2-1.3c0,0,0.1,0,0,0c0,0-0.2,0.4-0.1,0.5c0,0,0.4-0.5,1.3-0.9c0,0,0.9-0.4,1-0.6c0,0-0.1,0.6,0.2,1.5
				c0,0,0.3,1.7-0.2,2.8c0,0,0.4-0.1,0.6-0.3c0,0,0,0,0,0c0,0-1.1,4.8-5.3,4.9C139.2,68.2,139,68.2,138.9,68z"/>
		</g>
	</g>
	<g>
		<g>
			<path class="st0" d="M174.2,55.4c1.8,1.2,2.9,3.2,4.4,5.2c2.2,2.9,6.2,4.5,7.9,0.8c1.7-3.8-2-5.9-5.7-5.6
				C178.3,56.1,176.2,56,174.2,55.4z"/>
		</g>
	</g>
	<g>
		<g>
			<path class="st0" d="M158.6,21.3c0,0,2,2.4,0.1,5.6c0,0-0.8,1.3-1.2,1.6c0,0-0.1,0-0.1,0c0,0,0.1-0.3-0.1-0.6
				c0,0-0.5,0.9-1.2,1.3c0,0-0.1,0-0.1,0c0,0,0.2-0.4,0.1-0.5c0,0-0.3,0.5-1.3,1c0,0-0.9,0.5-1,0.6c0,0,0-0.6-0.2-1.5
				c0,0-0.4-1.7,0.1-2.8c0,0-0.4,0.1-0.6,0.3c0,0,0,0,0,0c0,0,0.9-4.9,5.2-5.1C158.3,21.1,158.5,21.1,158.6,21.3z"/>
		</g>
	</g>
	<g>
		<g>
			<path class="st0" d="M123.4,33.9c-1.8-1.2-2.9-3.2-4.4-5.3c-2.2-2.9-6.1-4.5-7.9-0.9c-1.7,3.8,2,6,5.7,5.6
				C119.4,33.2,121.5,33.3,123.4,33.9z"/>
		</g>
	</g>
	<g>
		<g>
			<path class="st0" d="M131.3,7.4c0.8,2,0.5,4.3,0.5,6.8c0.1,3.7,2.3,7.3,5.9,5.3c3.6-2.1,1.8-6-1.3-7.9
				C134.2,10.4,132.5,9.1,131.3,7.4z"/>
		</g>
	</g>
	<g>
		<g>
			<g>
				<path class="st1" d="M149.2,64.9c0,0,5.8,2.6,5.3,10.4c0,0-0.3,3.2-0.7,4c0,0-0.1,0.1-0.1,0c0,0-0.1-0.7-0.7-1
					c0,0,0,2.2-0.9,3.5c0,0-0.1,0.1-0.1,0c0,0,0-0.8-0.4-1c0,0-0.2,1.3-1.5,3c0,0-1.2,1.7-1.3,2.1c0,0-0.5-1.2-1.8-2.6
					c0,0-2.4-2.8-2.4-5.4c0,0-0.7,0.7-0.8,1.2c0,0-0.1,0.1-0.1,0c0,0-2.9-9.9,4.9-14.3C148.4,64.9,148.8,64.7,149.2,64.9z"/>
			</g>
		</g>
		<g>
			<g>
				<path class="st1" d="M148.4,24.7c0,0-5.8-2.6-5.3-10.4c0,0,0.3-3.2,0.8-4c0,0,0.1-0.1,0.1,0c0,0,0.1,0.7,0.7,1
					c0,0,0-2.2,0.9-3.5c0,0,0.1-0.1,0.1,0c0,0,0,0.8,0.4,1c0,0,0.2-1.3,1.5-3c0,0,1.2-1.7,1.3-2.1c0,0,0.5,1.2,1.8,2.6
					c0,0,2.4,2.8,2.4,5.4c0,0,0.7-0.7,0.8-1.2c0,0,0.1-0.1,0.1,0c0,0,2.9,9.9-4.9,14.3C149.2,24.7,148.8,24.9,148.4,24.7z"/>
			</g>
		</g>
		<g>
			<g>
				<path class="st1" d="M142.3,50.9c-1.7,1.3-4,1.6-6.5,2.4c-3.5,1.1-6.3,4.3-3.4,7.2c3.1,2.9,6.3,0,7.2-3.5
					C140.2,54.5,141.1,52.6,142.3,50.9z"/>
			</g>
		</g>
		<g>
			<g>
				<path class="st1" d="M177.7,74.1c0,0-4.8,1.9-9-2.8c0,0-1.7-2-1.9-2.7c0,0,0-0.1,0.1-0.1c0,0,0.5,0.3,1,0.2c0,0-1.2-1.2-1.5-2.6
					c0,0,0-0.1,0.1-0.1c0,0,0.5,0.5,0.8,0.4c0,0-0.7-0.8-0.9-2.6c0,0-0.3-1.6-0.5-1.9c0,0,1,0.4,2.5,0.5c0,0,3,0.3,4.5,1.6
					c0,0,0-0.8-0.2-1.2c0,0,0-0.1,0.1-0.1c0,0,7.3,4,5.5,10.9C178.1,73.6,178,73.9,177.7,74.1z"/>
			</g>
		</g>
		<g>
			<g>
				<path class="st1" d="M154.6,38.8c1.7-1.3,4-1.6,6.5-2.4c3.5-1.1,6.3-4.3,3.4-7.2c-3.1-2.9-6.3,0-7.2,3.5
					C156.6,35.2,155.8,37.1,154.6,38.8z"/>
			</g>
		</g>
		<g>
			<g>
				<path class="st1" d="M186.6,28.5c-2.1,0.6-4.3,0-6.9-0.2c-3.6-0.3-7.5,1.6-5.9,5.4c1.7,3.8,5.8,2.4,8-0.5
					C183.4,31.1,184.8,29.6,186.6,28.5z"/>
			</g>
		</g>
		<g>
			<g>
				<path class="st1" d="M110.8,61.9c2-0.8,4.3-0.5,6.9-0.5c3.7,0,7.3-2.3,5.4-5.9c-2.1-3.6-6-1.9-7.9,1.3
					C113.8,59,112.5,60.6,110.8,61.9z"/>
			</g>
		</g>
		<g>
			<g>
				<path class="st1" d="M171.9,54.6c0,0-2.4,1.9-5.6,0c0,0-1.3-0.8-1.6-1.2c0,0,0-0.1,0-0.1c0,0,0.3,0.1,0.6-0.1
					c0,0-0.9-0.5-1.3-1.2c0,0,0-0.1,0,0c0,0,0.4,0.2,0.5,0.1c0,0-0.5-0.3-1-1.3c0,0-0.5-0.9-0.6-1c0,0,0.6,0,1.5-0.2
					c0,0,1.7-0.4,2.8,0.1c0,0-0.1-0.4-0.3-0.6c0,0,0,0,0,0c0,0,4.9,0.9,5.1,5.2C172.1,54.3,172.1,54.5,171.9,54.6z"/>
			</g>
		</g>
		<g>
			<g>
				<path class="st1" d="M125.2,34.9c0,0,2.4-1.9,5.6,0c0,0,1.3,0.8,1.6,1.2c0,0,0,0.1,0,0.1c0,0-0.3-0.1-0.6,0.1
					c0,0,0.9,0.5,1.3,1.2c0,0,0,0.1,0,0c0,0-0.4-0.2-0.5-0.1c0,0,0.5,0.3,1,1.3c0,0,0.5,0.9,0.6,1c0,0-0.6,0-1.5,0.2
					c0,0-1.7,0.4-2.8-0.1c0,0,0.1,0.4,0.3,0.6c0,0,0,0,0,0c0,0-4.9-0.9-5.1-5.2C125.1,35.2,125.1,35,125.2,34.9z"/>
			</g>
		</g>
		<g>
			<g>
				<path class="st1" d="M158.1,68.6c0,0-3.1,0.2-4.6-3.2c0,0-0.6-1.4-0.6-1.9c0,0,0-0.1,0,0c0,0,0.2,0.3,0.5,0.3
					c0,0-0.5-0.9-0.4-1.7c0,0,0-0.1,0.1,0c0,0,0.2,0.4,0.4,0.4c0,0-0.2-0.6,0-1.6c0,0,0.1-1,0.1-1.2c0,0,0.5,0.4,1.4,0.7
					c0,0,1.6,0.7,2.2,1.8c0,0,0.1-0.4,0.1-0.7c0,0,0-0.1,0,0c0,0,3.4,3.6,1.1,7.2C158.5,68.4,158.4,68.6,158.1,68.6z"/>
			</g>
		</g>
		<g>
			<g>
				<path class="st1" d="M139.4,21c0,0,3.1-0.2,4.7,3.2c0,0,0.6,1.4,0.6,1.9c0,0,0,0.1,0,0c0,0-0.2-0.3-0.5-0.3c0,0,0.5,0.9,0.4,1.7
					c0,0,0,0.1-0.1,0c0,0-0.2-0.4-0.4-0.3c0,0,0.2,0.6,0.1,1.6c0,0-0.1,1,0,1.2c0,0-0.5-0.4-1.4-0.7c0,0-1.6-0.7-2.3-1.7
					c0,0-0.1,0.4-0.1,0.7c0,0,0,0.1,0,0c0,0-3.5-3.5-1.2-7.2C139.1,21.2,139.1,21.1,139.4,21z"/>
			</g>
		</g>
	</g>
	<g>
		<g>
			<path class="st0" d="M165.6,45.1c0,0-1.8,4.1-7.3,3.8c0,0-2.2-0.2-2.8-0.5c0,0-0.1-0.1,0-0.1c0,0,0.5-0.1,0.7-0.5
				c0,0-1.5,0-2.5-0.7c0,0-0.1-0.1,0-0.1c0,0,0.6,0,0.7-0.3c0,0-0.9-0.1-2.1-1.1c0,0-1.2-0.8-1.5-0.9c0,0,0.9-0.4,1.8-1.3
				c0,0,2-1.7,3.8-1.7c0,0-0.5-0.5-0.8-0.6c0,0-0.1,0,0-0.1c0,0,6.9-2,10,3.4C165.6,44.5,165.7,44.8,165.6,45.1z"/>
		</g>
	</g>
	<g>
		<g>
			<g>
				<path class="st2" d="M168.9,44.4c0,0,2.6-5.8,10.4-5.3c0,0,3.2,0.3,4,0.8c0,0,0.1,0.1,0,0.1c0,0-0.7,0.1-1,0.7
					c0,0,2.2,0,3.5,0.9c0,0,0.1,0.1,0,0.1c0,0-0.8,0-1,0.4c0,0,1.3,0.1,3,1.5c0,0,1.7,1.2,2.1,1.3c0,0-1.2,0.5-2.6,1.8
					c0,0-2.8,2.4-5.4,2.4c0,0,0.7,0.7,1.2,0.9c0,0,0.1,0.1,0,0.1c0,0-9.9,2.9-14.3-4.9C168.9,45.2,168.7,44.8,168.9,44.4z"/>
			</g>
		</g>
		<g>
			<g>
				<path class="st2" d="M128.4,44.6c0,0-2.6,5.8-10.4,5.3c0,0-3.2-0.3-4-0.8c0,0-0.1-0.1,0-0.1c0,0,0.7-0.1,1-0.7
					c0,0-2.2,0-3.5-0.9c0,0-0.1-0.1,0-0.1c0,0,0.8,0,1-0.4c0,0-1.3-0.1-3-1.5c0,0-1.7-1.2-2.1-1.3c0,0,1.2-0.5,2.6-1.8
					c0,0,2.8-2.4,5.4-2.4c0,0-0.7-0.7-1.2-0.9c0,0-0.1-0.1,0-0.1c0,0,9.9-2.9,14.3,4.9C128.4,43.9,128.6,44.2,128.4,44.6z"/>
			</g>
		</g>
		<g>
			<g>
				<path class="st2" d="M119.7,15.4c0,0,4.8-1.9,9,2.8c0,0,1.7,2,1.9,2.7c0,0,0,0.1,0,0.1c0,0-0.5-0.3-1-0.2c0,0,1.2,1.2,1.5,2.5
					c0,0,0,0.1-0.1,0.1c0,0-0.5-0.5-0.8-0.4c0,0,0.7,0.8,0.9,2.6c0,0,0.3,1.6,0.5,1.9c0,0-1-0.4-2.5-0.4c0,0-3-0.2-4.5-1.6
					c0,0,0,0.8,0.2,1.2c0,0,0,0.1-0.1,0.1c0,0-7.3-3.9-5.5-10.9C119.3,15.8,119.3,15.5,119.7,15.4z"/>
			</g>
		</g>
		<g>
			<g>
				<path class="st2" d="M172.3,35.4c0,0,0.3,3.1-3.1,4.7c0,0-1.4,0.7-1.9,0.7c0,0-0.1,0,0,0c0,0,0.3-0.2,0.3-0.5
					c0,0-0.9,0.5-1.7,0.5c0,0-0.1,0,0-0.1c0,0,0.3-0.2,0.3-0.4c0,0-0.6,0.3-1.6,0.1c0,0-1-0.1-1.2,0c0,0,0.4-0.5,0.7-1.4
					c0,0,0.6-1.7,1.7-2.3c0,0-0.4-0.1-0.7-0.1c0,0-0.1,0,0,0c0,0,3.4-3.6,7.1-1.4C172.1,35.1,172.3,35.2,172.3,35.4z"/>
			</g>
		</g>
		<g>
			<g>
				<path class="st2" d="M124.3,54.3c0,0-0.3-3.1,3.1-4.7c0,0,1.4-0.7,1.9-0.7c0,0,0.1,0,0,0c0,0-0.3,0.2-0.2,0.5
					c0,0,0.9-0.5,1.7-0.5c0,0,0.1,0,0,0.1c0,0-0.3,0.2-0.3,0.4c0,0,0.6-0.2,1.6-0.1c0,0,1,0.1,1.2,0c0,0-0.4,0.5-0.7,1.4
					c0,0-0.6,1.7-1.7,2.3c0,0,0.4,0.1,0.7,0.1c0,0,0.1,0,0,0c0,0-3.4,3.6-7.1,1.4C124.5,54.6,124.3,54.5,124.3,54.3z"/>
			</g>
		</g>
		<g>
			<g>
				<path class="st2" d="M137.9,69.9c-1.2,1.8-3.2,2.8-5.3,4.3c-3,2.1-4.7,6.1-1,7.9c3.8,1.8,6-1.9,5.7-5.6
					C137.1,74,137.3,71.9,137.9,69.9z"/>
			</g>
		</g>
		<g>
			<g>
				<path class="st2" d="M159.3,19.3c1.2-1.8,3.1-3,5.2-4.5c2.9-2.3,4.4-6.2,0.7-7.9c-3.9-1.6-5.9,2.2-5.5,5.8
					C159.9,15.2,159.9,17.3,159.3,19.3z"/>
			</g>
		</g>
		<g>
			<g>
				<path class="st2" d="M166.2,81.9c-0.8-2-0.6-4.3-0.7-6.8c-0.2-3.7-2.6-7.2-6.1-5.1c-3.6,2.2-1.6,6.1,1.6,7.9
					C163.2,79.1,164.9,80.3,166.2,81.9z"/>
			</g>
		</g>
		<g>
			<g>
				<path class="st2" d="M148.9,48c0,0,4.1,1.8,3.8,7.3c0,0-0.2,2.2-0.5,2.8c0,0-0.1,0.1-0.1,0c0,0-0.1-0.5-0.5-0.7
					c0,0,0,1.5-0.7,2.5c0,0,0,0.1-0.1,0c0,0,0-0.6-0.3-0.7c0,0-0.1,0.9-1.1,2.1c0,0-0.8,1.2-0.9,1.5c0,0-0.4-0.9-1.3-1.8
					c0,0-1.7-2-1.7-3.8c0,0-0.5,0.5-0.6,0.8c0,0,0,0.1-0.1,0c0,0-2-6.9,3.4-10C148.4,48,148.6,47.8,148.9,48z"/>
			</g>
		</g>
		<g>
			<g>
				<path class="st2" d="M148.5,41.4c0,0-4.1-1.8-3.8-7.3c0,0,0.2-2.2,0.5-2.8c0,0,0.1-0.1,0.1,0c0,0,0.1,0.5,0.5,0.7
					c0,0,0-1.5,0.7-2.5c0,0,0-0.1,0.1,0c0,0,0,0.6,0.3,0.7c0,0,0.1-0.9,1.1-2.1c0,0,0.8-1.2,0.9-1.5c0,0,0.4,0.9,1.3,1.8
					c0,0,1.7,2,1.7,3.8c0,0,0.5-0.5,0.6-0.8c0,0,0-0.1,0.1,0c0,0,2,6.9-3.4,10C149.1,41.4,148.8,41.5,148.5,41.4z"/>
			</g>
		</g>
	</g>
	<g>
		<g>
			<path class="st0" d="M131.5,44.5c0,0,1.8-4.1,7.3-3.8c0,0,2.2,0.2,2.8,0.5c0,0,0.1,0.1,0,0.1c0,0-0.5,0.1-0.7,0.5
				c0,0,1.5,0,2.5,0.7c0,0,0.1,0,0,0.1c0,0-0.6,0-0.7,0.3c0,0,0.9,0.1,2.1,1.1c0,0,1.2,0.8,1.5,0.9c0,0-0.9,0.4-1.8,1.3
				c0,0-2,1.7-3.8,1.7c0,0,0.5,0.5,0.8,0.6c0,0,0.1,0,0,0.1c0,0-6.9,2-10-3.4C131.5,45,131.3,44.8,131.5,44.5z"/>
		</g>
	</g>
</g>
</svg>
